<svg width="211" height="31" viewBox="0 0 211 31" fill="none" xmlns="http://www.w3.org/2000/svg">
<path d="M15.8015 21.544C16.1642 21.7573 16.3455 22.0453 16.3455 22.408C16.3455 22.6853 16.2388 22.92 16.0255 23.112C15.8335 23.2827 15.5775 23.368 15.2575 23.368C15.0228 23.368 14.8095 23.3253 14.6175 23.24L1.6895 17.384C1.39083 17.256 1.15617 17.064 0.9855 16.808C0.814833 16.5307 0.7295 16.2213 0.7295 15.88C0.7295 15.56 0.814833 15.272 0.9855 15.016C1.15617 14.76 1.39083 14.568 1.6895 14.44L14.6175 8.584C14.8735 8.47733 15.0868 8.424 15.2575 8.424C15.5775 8.424 15.8335 8.52 16.0255 8.712C16.2388 8.88267 16.3455 9.11733 16.3455 9.416C16.3455 9.77867 16.1642 10.056 15.8015 10.248L3.1935 15.912L15.8015 21.544ZM40.941 2.28C41.3463 2.28 41.6557 2.408 41.869 2.664C42.1037 2.89867 42.221 3.21867 42.221 3.624V23.88C42.221 24.264 42.1143 24.5733 41.901 24.808C41.6877 25.0427 41.389 25.16 41.005 25.16C40.621 25.16 40.333 25.0427 40.141 24.808C39.949 24.5733 39.853 24.264 39.853 23.88V7.528L32.909 20.84C32.6103 21.4587 32.173 21.768 31.597 21.768C31.0423 21.768 30.605 21.4587 30.285 20.84L23.309 7.688V23.88C23.309 24.264 23.2023 24.5733 22.989 24.808C22.797 25.0427 22.509 25.16 22.125 25.16C21.741 25.16 21.4423 25.0427 21.229 24.808C21.0157 24.5733 20.909 24.264 20.909 23.88V3.624C20.909 3.21867 21.0263 2.89867 21.261 2.664C21.4957 2.408 21.8157 2.28 22.221 2.28C22.7543 2.28 23.181 2.58933 23.501 3.208L31.629 18.792L39.661 3.208C39.8317 2.86667 40.013 2.632 40.205 2.504C40.4183 2.35467 40.6637 2.28 40.941 2.28ZM58.6633 9.896C58.8979 9.384 59.2713 9.128 59.7833 9.128C60.1033 9.128 60.3913 9.23467 60.6473 9.448C60.9033 9.66133 61.0312 9.928 61.0312 10.248C61.0312 10.44 60.9886 10.6107 60.9033 10.76L51.9113 30.152C51.8046 30.3867 51.6446 30.568 51.4313 30.696C51.2393 30.824 51.0366 30.888 50.8233 30.888C50.5033 30.888 50.2153 30.7813 49.9593 30.568C49.7246 30.376 49.6073 30.12 49.6073 29.8C49.6073 29.6293 49.6499 29.4587 49.7352 29.288L51.9753 24.456L45.6393 10.76C45.5539 10.6107 45.5113 10.4507 45.5113 10.28C45.5113 9.96 45.6499 9.68267 45.9273 9.448C46.2259 9.21333 46.5459 9.096 46.8873 9.096C47.1006 9.096 47.3033 9.16 47.4953 9.288C47.7086 9.416 47.8686 9.59733 47.9753 9.832L53.3193 21.832L58.6633 9.896ZM65.5648 25.16C65.1594 25.16 64.8394 25.0427 64.6048 24.808C64.3701 24.552 64.2528 24.2213 64.2528 23.816V3.72C64.2528 3.336 64.3701 3.02667 64.6048 2.792C64.8608 2.55733 65.1914 2.44 65.5968 2.44H73.1808C75.5488 2.44 77.3834 3.016 78.6848 4.168C80.0074 5.32 80.6688 6.952 80.6688 9.064C80.6688 11.176 80.0074 12.8187 78.6848 13.992C77.3621 15.1653 75.5274 15.752 73.1808 15.752H66.8768V23.816C66.8768 24.2213 66.7594 24.552 66.5248 24.808C66.2901 25.0427 65.9701 25.16 65.5648 25.16ZM72.9248 13.576C76.3594 13.576 78.0768 12.072 78.0768 9.064C78.0768 6.09867 76.3594 4.616 72.9248 4.616H66.8768V13.576H72.9248ZM90.4578 25.224C88.9858 25.224 87.6844 24.8933 86.5538 24.232C85.4444 23.5707 84.5804 22.632 83.9618 21.416C83.3644 20.1787 83.0658 18.7493 83.0658 17.128C83.0658 15.5067 83.3644 14.088 83.9618 12.872C84.5804 11.6347 85.4444 10.6853 86.5538 10.024C87.6844 9.36267 88.9858 9.032 90.4578 9.032C91.9298 9.032 93.2311 9.36267 94.3618 10.024C95.4924 10.6853 96.3564 11.6347 96.9538 12.872C97.5724 14.088 97.8818 15.5067 97.8818 17.128C97.8818 18.7493 97.5724 20.1787 96.9538 21.416C96.3564 22.632 95.4924 23.5707 94.3618 24.232C93.2311 24.8933 91.9298 25.224 90.4578 25.224ZM90.4578 23.08C91.9938 23.08 93.1671 22.5787 93.9778 21.576C94.8098 20.552 95.2258 19.0693 95.2258 17.128C95.2258 15.2293 94.8098 13.768 93.9778 12.744C93.1458 11.6987 91.9724 11.176 90.4578 11.176C88.9431 11.176 87.7698 11.6987 86.9378 12.744C86.1058 13.768 85.6898 15.2293 85.6898 17.128C85.6898 19.048 86.0951 20.52 86.9058 21.544C87.7378 22.568 88.9218 23.08 90.4578 23.08ZM109.456 9.096C110.352 9.032 110.8 9.39467 110.8 10.184C110.8 10.5253 110.704 10.8027 110.512 11.016C110.32 11.208 109.989 11.3253 109.52 11.368L108.56 11.464C107.13 11.592 106.064 12.104 105.36 13C104.677 13.8747 104.336 14.9093 104.336 16.104V23.88C104.336 24.3067 104.218 24.6267 103.984 24.84C103.749 25.0533 103.44 25.16 103.056 25.16C102.672 25.16 102.352 25.0533 102.096 24.84C101.861 24.6053 101.744 24.2853 101.744 23.88V10.376C101.744 9.97067 101.872 9.66133 102.128 9.448C102.384 9.21333 102.693 9.096 103.056 9.096C103.397 9.096 103.685 9.21333 103.92 9.448C104.154 9.66133 104.272 9.96 104.272 10.344V12.136C104.72 11.1973 105.349 10.4827 106.16 9.992C106.992 9.50133 107.941 9.21333 109.008 9.128L109.456 9.096ZM121.475 23.112C122.222 23.176 122.595 23.5173 122.595 24.136C122.595 24.4987 122.456 24.776 122.179 24.968C121.923 25.1387 121.528 25.2027 120.995 25.16L120.131 25.096C118.424 24.968 117.166 24.456 116.355 23.56C115.544 22.664 115.139 21.3093 115.139 19.496V11.464H112.995C112.632 11.464 112.344 11.3787 112.131 11.208C111.939 11.016 111.843 10.7707 111.843 10.472C111.843 10.152 111.939 9.896 112.131 9.704C112.344 9.512 112.632 9.416 112.995 9.416H115.139V5.8C115.139 5.39467 115.256 5.08533 115.491 4.872C115.726 4.63733 116.046 4.52 116.451 4.52C116.835 4.52 117.144 4.63733 117.379 4.872C117.614 5.08533 117.731 5.39467 117.731 5.8V9.416H121.283C121.624 9.416 121.891 9.512 122.083 9.704C122.296 9.896 122.403 10.152 122.403 10.472C122.403 10.7707 122.296 11.016 122.083 11.208C121.891 11.3787 121.624 11.464 121.283 11.464H117.731V19.624C117.731 20.7973 117.966 21.6507 118.435 22.184C118.926 22.696 119.651 22.984 120.611 23.048L121.475 23.112ZM132.374 4.488C131.243 4.57333 130.39 4.936 129.814 5.576C129.238 6.19467 128.95 7.13333 128.95 8.392V9.416H132.502C132.864 9.416 133.142 9.512 133.334 9.704C133.526 9.896 133.622 10.152 133.622 10.472C133.622 10.792 133.526 11.0373 133.334 11.208C133.142 11.3787 132.864 11.464 132.502 11.464H128.95V23.88C128.95 24.2853 128.822 24.6053 128.566 24.84C128.331 25.0533 128.032 25.16 127.67 25.16C127.286 25.16 126.966 25.0533 126.71 24.84C126.475 24.6053 126.358 24.2853 126.358 23.88V11.464H124.214C123.851 11.464 123.563 11.3787 123.35 11.208C123.158 11.016 123.062 10.7707 123.062 10.472C123.062 10.152 123.158 9.896 123.35 9.704C123.563 9.512 123.851 9.416 124.214 9.416H126.358V8.84C126.358 6.92 126.838 5.416 127.798 4.328C128.758 3.21867 130.134 2.6 131.926 2.472L132.758 2.408C133.312 2.36533 133.707 2.41867 133.942 2.568C134.198 2.71733 134.326 2.984 134.326 3.368C134.326 3.98667 133.952 4.33867 133.206 4.424L132.374 4.488ZM142.302 25.224C140.83 25.224 139.528 24.8933 138.398 24.232C137.288 23.5707 136.424 22.632 135.806 21.416C135.208 20.1787 134.91 18.7493 134.91 17.128C134.91 15.5067 135.208 14.088 135.806 12.872C136.424 11.6347 137.288 10.6853 138.398 10.024C139.528 9.36267 140.83 9.032 142.302 9.032C143.774 9.032 145.075 9.36267 146.206 10.024C147.336 10.6853 148.2 11.6347 148.798 12.872C149.416 14.088 149.726 15.5067 149.726 17.128C149.726 18.7493 149.416 20.1787 148.798 21.416C148.2 22.632 147.336 23.5707 146.206 24.232C145.075 24.8933 143.774 25.224 142.302 25.224ZM142.302 23.08C143.838 23.08 145.011 22.5787 145.822 21.576C146.654 20.552 147.07 19.0693 147.07 17.128C147.07 15.2293 146.654 13.768 145.822 12.744C144.99 11.6987 143.816 11.176 142.302 11.176C140.787 11.176 139.614 11.6987 138.782 12.744C137.95 13.768 137.534 15.2293 137.534 17.128C137.534 19.048 137.939 20.52 138.75 21.544C139.582 22.568 140.766 23.08 142.302 23.08ZM154.9 25.16C154.516 25.16 154.196 25.0533 153.94 24.84C153.705 24.6053 153.588 24.2853 153.588 23.88V3.56C153.588 3.15467 153.705 2.84533 153.94 2.632C154.196 2.39733 154.516 2.28 154.9 2.28C155.262 2.28 155.561 2.39733 155.796 2.632C156.052 2.84533 156.18 3.15467 156.18 3.56V23.88C156.18 24.2853 156.052 24.6053 155.796 24.84C155.561 25.0533 155.262 25.16 154.9 25.16ZM162.337 25.16C161.953 25.16 161.633 25.0533 161.377 24.84C161.142 24.6053 161.025 24.2853 161.025 23.88V10.376C161.025 9.97067 161.142 9.66133 161.377 9.448C161.633 9.21333 161.953 9.096 162.337 9.096C162.721 9.096 163.03 9.21333 163.265 9.448C163.5 9.66133 163.617 9.97067 163.617 10.376V23.88C163.617 24.3067 163.5 24.6267 163.265 24.84C163.03 25.0533 162.721 25.16 162.337 25.16ZM162.337 5.736C161.825 5.736 161.409 5.58666 161.089 5.288C160.769 4.98933 160.609 4.59466 160.609 4.104C160.609 3.63467 160.769 3.25067 161.089 2.952C161.409 2.65333 161.825 2.504 162.337 2.504C162.849 2.504 163.265 2.65333 163.585 2.952C163.905 3.25067 164.065 3.63467 164.065 4.104C164.065 4.59466 163.905 4.98933 163.585 5.288C163.265 5.58666 162.849 5.736 162.337 5.736ZM174.927 25.224C173.455 25.224 172.153 24.8933 171.023 24.232C169.913 23.5707 169.049 22.632 168.431 21.416C167.833 20.1787 167.535 18.7493 167.535 17.128C167.535 15.5067 167.833 14.088 168.431 12.872C169.049 11.6347 169.913 10.6853 171.023 10.024C172.153 9.36267 173.455 9.032 174.927 9.032C176.399 9.032 177.7 9.36267 178.831 10.024C179.961 10.6853 180.825 11.6347 181.423 12.872C182.041 14.088 182.351 15.5067 182.351 17.128C182.351 18.7493 182.041 20.1787 181.423 21.416C180.825 22.632 179.961 23.5707 178.831 24.232C177.7 24.8933 176.399 25.224 174.927 25.224ZM174.927 23.08C176.463 23.08 177.636 22.5787 178.447 21.576C179.279 20.552 179.695 19.0693 179.695 17.128C179.695 15.2293 179.279 13.768 178.447 12.744C177.615 11.6987 176.441 11.176 174.927 11.176C173.412 11.176 172.239 11.6987 171.407 12.744C170.575 13.768 170.159 15.2293 170.159 17.128C170.159 19.048 170.564 20.52 171.375 21.544C172.207 22.568 173.391 23.08 174.927 23.08ZM185.605 26.152C185.519 26.4293 185.381 26.6427 185.189 26.792C184.997 26.9413 184.783 27.016 184.549 27.016C184.25 27.016 183.983 26.9093 183.748 26.696C183.514 26.4827 183.396 26.216 183.396 25.896C183.396 25.768 183.428 25.6187 183.492 25.448L191.045 1.832C191.13 1.55467 191.269 1.34133 191.461 1.192C191.653 1.04267 191.866 0.967999 192.101 0.967999C192.399 0.967999 192.666 1.07467 192.901 1.288C193.135 1.50133 193.253 1.77867 193.253 2.12C193.253 2.184 193.231 2.32267 193.189 2.536L185.605 26.152ZM209.323 14.44C209.622 14.568 209.856 14.76 210.027 15.016C210.198 15.272 210.283 15.56 210.283 15.88C210.283 16.2213 210.198 16.5307 210.027 16.808C209.856 17.064 209.622 17.256 209.323 17.384L196.395 23.24C196.203 23.3253 195.99 23.368 195.755 23.368C195.456 23.368 195.2 23.2827 194.987 23.112C194.774 22.92 194.667 22.6853 194.667 22.408C194.667 22.0453 194.859 21.7573 195.243 21.544L207.819 15.912L195.243 10.248C194.859 10.0773 194.667 9.8 194.667 9.416C194.667 9.11733 194.763 8.88267 194.955 8.712C195.168 8.52 195.435 8.424 195.755 8.424C195.926 8.424 196.139 8.47733 196.395 8.584L209.323 14.44Z" fill="#00ACBF"/>
</svg>
