<svg width="134" height="107" viewBox="0 0 134 107" fill="none" xmlns="http://www.w3.org/2000/svg">
<g clip-path="url(#clip0)">
<path d="M33.8185 60.0317H0.778876C0.572387 60.0315 0.374422 59.9495 0.228412 59.8037C0.0824023 59.6579 0.000270041 59.4603 3.05176e-05 59.2541V19.7512C0.000270041 19.5451 0.0824023 19.3474 0.228412 19.2017C0.374422 19.0559 0.572387 18.9739 0.778876 18.9736H33.8185C34.025 18.9739 34.223 19.0559 34.369 19.2017C34.515 19.3474 34.5971 19.5451 34.5974 19.7512V59.2541C34.5971 59.4603 34.515 59.6579 34.369 59.8037C34.223 59.9495 34.025 60.0315 33.8185 60.0317ZM0.778876 19.2847C0.654981 19.2848 0.536198 19.334 0.448591 19.4215C0.360984 19.509 0.311707 19.6275 0.311569 19.7512V59.2541C0.311707 59.3778 0.360984 59.4964 0.448591 59.5839C0.536198 59.6714 0.654981 59.7206 0.778876 59.7207H33.8185C33.9424 59.7206 34.0612 59.6714 34.1488 59.5839C34.2364 59.4964 34.2857 59.3778 34.2858 59.2541V19.7512C34.2857 19.6275 34.2364 19.509 34.1488 19.4215C34.0612 19.334 33.9424 19.2848 33.8185 19.2847H0.778876Z" fill="#2F2E41"/>
<path d="M29.3708 27.3721H5.22659V42.3023H29.3708V27.3721Z" fill="#BBBBBB"/>
<path d="M11.3016 47.9014H5.22659V51.6339H11.3016V47.9014Z" fill="#E4E4E4"/>
<path d="M29.3708 47.9014H23.2959V51.6339H29.3708V47.9014Z" fill="#E4E4E4"/>
<path d="M20.3362 47.9014H14.2612V51.6339H20.3362V47.9014Z" fill="#E4E4E4"/>
<path d="M79.303 41.0581H46.2634C46.0569 41.0579 45.859 40.9759 45.713 40.8301C45.5669 40.6843 45.4848 40.4867 45.4846 40.2805V0.777616C45.4848 0.571452 45.5669 0.373799 45.713 0.228019C45.859 0.0822387 46.0569 0.000235859 46.2634 0H79.303C79.5095 0.000235859 79.7075 0.0822387 79.8535 0.228019C79.9995 0.373799 80.0817 0.571452 80.0819 0.777616V40.2805C80.0817 40.4867 79.9995 40.6843 79.8535 40.8301C79.7075 40.9759 79.5095 41.0579 79.303 41.0581ZM46.2634 0.311047C46.1395 0.311182 46.0207 0.360381 45.9331 0.447851C45.8455 0.53532 45.7962 0.653916 45.7961 0.777616V40.2805C45.7962 40.4042 45.8455 40.5228 45.9331 40.6103C46.0207 40.6978 46.1395 40.747 46.2634 40.7471H79.303C79.4269 40.747 79.5457 40.6978 79.6333 40.6103C79.7209 40.5228 79.7702 40.4042 79.7704 40.2805V0.777616C79.7702 0.653916 79.7209 0.53532 79.6333 0.447851C79.5457 0.360381 79.4269 0.311182 79.303 0.311047H46.2634Z" fill="#2F2E41"/>
<path d="M79.6977 66.0974H46.6581C46.4516 66.0972 46.2536 66.0152 46.1076 65.8694C45.9616 65.7236 45.8795 65.5259 45.8792 65.3198V53.6555C45.8795 53.4494 45.9616 53.2517 46.1076 53.106C46.2536 52.9602 46.4516 52.8782 46.6581 52.8779H79.6977C79.9042 52.8782 80.1022 52.9602 80.2482 53.106C80.3942 53.2517 80.4763 53.4494 80.4765 53.6555V65.3198C80.4763 65.5259 80.3942 65.7236 80.2482 65.8694C80.1022 66.0152 79.9042 66.0972 79.6977 66.0974ZM46.6581 53.189C46.5342 53.1891 46.4154 53.2383 46.3278 53.3258C46.2402 53.4132 46.1909 53.5318 46.1908 53.6555V65.3198C46.1909 65.4435 46.2402 65.5621 46.3278 65.6495C46.4154 65.737 46.5342 65.7862 46.6581 65.7863H79.6977C79.8216 65.7862 79.9404 65.737 80.028 65.6495C80.1156 65.5621 80.1649 65.4435 80.165 65.3198V53.6555C80.1649 53.5318 80.1156 53.4132 80.028 53.3258C79.9404 53.2383 79.8216 53.1891 79.6977 53.189H46.6581Z" fill="#2F2E41"/>
<path d="M72.9083 26.5166H52.6583C51.6259 26.5166 50.7891 27.3522 50.7891 28.3829V28.3829C50.7891 29.4136 51.6259 30.2492 52.6583 30.2492H72.9083C73.9406 30.2492 74.7775 29.4136 74.7775 28.3829C74.7775 27.3522 73.9406 26.5166 72.9083 26.5166Z" fill="#E4E4E4"/>
<path d="M72.9083 32.4268H52.6583C51.6259 32.4268 50.7891 33.2623 50.7891 34.293V34.293C50.7891 35.3238 51.6259 36.1593 52.6583 36.1593H72.9083C73.9406 36.1593 74.7775 35.3238 74.7775 34.293C74.7775 33.2623 73.9406 32.4268 72.9083 32.4268Z" fill="#E4E4E4"/>
<path d="M62.7833 22.3175C67.6009 22.3175 71.5063 18.4182 71.5063 13.6082C71.5063 8.79821 67.6009 4.89893 62.7833 4.89893C57.9656 4.89893 54.0602 8.79821 54.0602 13.6082C54.0602 18.4182 57.9656 22.3175 62.7833 22.3175Z" fill="#BBBBBB"/>
<path d="M72.6019 57.6216H63.723C62.6907 57.6216 61.8538 58.4571 61.8538 59.4879C61.8538 60.5186 62.6907 61.3541 63.723 61.3541H72.6019C73.6342 61.3541 74.4711 60.5186 74.4711 59.4879C74.4711 58.4571 73.6342 57.6216 72.6019 57.6216Z" fill="#E4E4E4"/>
<path d="M55.3115 62.909C57.2042 62.909 58.7384 61.3771 58.7384 59.4874C58.7384 57.5978 57.2042 56.0659 55.3115 56.0659C53.4189 56.0659 51.8846 57.5978 51.8846 59.4874C51.8846 61.3771 53.4189 62.909 55.3115 62.909Z" fill="#BBBBBB"/>
<path d="M133.844 107H74.4962C74.4549 107 74.4153 106.984 74.3861 106.954C74.3569 106.925 74.3405 106.886 74.3405 106.844C74.3405 106.803 74.3569 106.764 74.3861 106.735C74.4153 106.705 74.4549 106.689 74.4962 106.689H133.844C133.886 106.689 133.925 106.705 133.954 106.735C133.984 106.764 134 106.803 134 106.844C134 106.886 133.984 106.925 133.954 106.954C133.925 106.984 133.886 107 133.844 107Z" fill="#CACACA"/>
<path d="M116.263 73.4138C116.154 73.2586 116.081 73.0815 116.048 72.895C116.015 72.7084 116.024 72.517 116.073 72.3341C116.123 72.1512 116.212 71.9814 116.334 71.8366C116.456 71.6918 116.609 71.5755 116.781 71.4959L116.322 66.915L118.444 68.0269L118.554 72.2065C118.669 72.5041 118.67 72.8334 118.558 73.132C118.446 73.4305 118.228 73.6776 117.946 73.8264C117.663 73.9753 117.336 74.0155 117.026 73.9394C116.716 73.8634 116.444 73.6764 116.263 73.4139V73.4138Z" fill="#FFB6B6"/>
<path d="M97.6818 72.7698C97.5731 72.6146 97.4999 72.4375 97.4671 72.2509C97.4344 72.0644 97.4431 71.8729 97.4925 71.6901C97.5419 71.5072 97.6309 71.3374 97.7531 71.1926C97.8754 71.0478 98.0279 70.9315 98.2001 70.8519L97.7414 66.271L99.8631 67.3829L99.9733 71.5625C100.088 71.8601 100.089 72.1894 99.9773 72.4879C99.8651 72.7865 99.6472 73.0336 99.3647 73.1824C99.0822 73.3312 98.7549 73.3714 98.4447 73.2954C98.1346 73.2193 97.8631 73.0324 97.6818 72.7698V72.7698Z" fill="#FFB6B6"/>
<path d="M111.834 105.092H110.252L109.5 99H111.835L111.834 105.092Z" fill="#FFB6B6"/>
<path d="M112.238 106.623L107.137 106.623V106.559C107.137 106.033 107.346 105.529 107.718 105.157C108.091 104.786 108.596 104.577 109.122 104.577H109.122L112.238 104.577L112.238 106.623Z" fill="#2F2E41"/>
<path d="M100.092 105.092H98.5102L97.7576 99H100.092L100.092 105.092Z" fill="#FFB6B6"/>
<path d="M100.496 106.623L95.3948 106.623V106.559C95.3948 106.033 95.604 105.529 95.9763 105.157C96.3486 104.786 96.8536 104.577 97.3801 104.577H97.3803L100.496 104.577L100.496 106.623Z" fill="#2F2E41"/>
<path d="M110.695 41.7483C112.72 40.6433 113.464 38.109 112.357 36.0877C111.251 34.0665 108.712 33.3236 106.688 34.4285C104.663 35.5335 103.919 38.0678 105.026 40.0891C106.133 42.1104 108.671 42.8532 110.695 41.7483Z" fill="#FFB8B8"/>
<path d="M99.4707 70.605L98.6965 71.8294L97.1482 103.714L100.374 103.586L106.826 76.66L109.406 103.843L112.245 103.972L114.549 72.3604L99.4707 70.605Z" fill="#2F2E41"/>
<path d="M116.374 46.5137L111.084 43.6795L105.148 43.293L99.9178 46.5137C99.9178 46.5137 104.503 60.041 99.4708 67.8996L98.6966 71.6357L114.697 72.7952C114.697 72.7952 113.665 56.0472 115.084 53.9859C116.503 51.9246 116.374 46.5137 116.374 46.5137Z" fill="#535167"/>
<path d="M114.548 47.2156L116.374 46.5137C116.374 46.5137 119.6 49.3479 119.471 56.176C119.342 63.004 118.645 70.605 118.645 70.605L116.245 70.9915L114.955 59.9121L113.148 50.2498L114.548 47.2156Z" fill="#535167"/>
<path d="M101.813 47.2156L99.9869 46.5137C99.9869 46.5137 96.761 49.3479 96.8901 56.176C97.0191 63.004 97.7161 70.605 97.7161 70.605L100.116 70.9915L101.406 59.9121L103.213 50.2498L101.813 47.2156Z" fill="#535167"/>
<path d="M111.712 33.8808C111.346 33.5225 110.908 33.2462 110.426 33.0703C109.945 32.8944 109.432 32.8231 108.921 32.861C108.022 32.9335 107.963 32.9552 107.155 33.3563C106.652 33.594 106.163 33.861 105.691 34.1558C105.687 33.9643 104.89 33.2313 104.761 33.3732C104.632 33.5151 105.094 34.4372 104.991 34.5988C104.887 34.7604 103.955 34.1824 103.858 34.0173C104.578 35.0089 105.529 36.969 105.301 38.1724C105.458 37.9948 105.665 37.8679 105.895 37.8076C106.124 37.7473 106.367 37.7563 106.592 37.8336C106.816 37.9108 107.013 38.0528 107.157 38.2416C107.301 38.4304 107.385 38.6575 107.4 38.8943C107.451 39.7171 106.687 40.6191 107.186 41.2755C107.472 41.6511 108.016 41.6823 108.489 41.6801L111.983 41.2911C112.734 40.0965 113.202 39.149 113.406 37.7534C113.611 36.3579 112.714 34.8751 111.712 33.8808Z" fill="#2F2E41"/>
</g>
<defs>
<clipPath id="clip0">
<rect width="134" height="107" fill="white"/>
</clipPath>
</defs>
</svg>
